<svg width="20" height="20" viewBox="0 0 20 20" fill="none" xmlns="http://www.w3.org/2000/svg">
<path d="M1.66666 5C1.66666 4.53976 2.03975 4.16667 2.49999 4.16667H17.5C17.9602 4.16667 18.3333 4.53976 18.3333 5C18.3333 5.46024 17.9602 5.83333 17.5 5.83333H2.49999C2.03975 5.83333 1.66666 5.46024 1.66666 5Z" fill="#2D3648"/>
<path d="M1.66666 10C1.66666 9.53976 2.03975 9.16667 2.49999 9.16667H17.5C17.9602 9.16667 18.3333 9.53976 18.3333 10C18.3333 10.4602 17.9602 10.8333 17.5 10.8333H2.49999C2.03975 10.8333 1.66666 10.4602 1.66666 10Z" fill="#2D3648"/>
<path d="M2.49999 14.1667C2.03975 14.1667 1.66666 14.5398 1.66666 15C1.66666 15.4602 2.03975 15.8333 2.49999 15.8333H17.5C17.9602 15.8333 18.3333 15.4602 18.3333 15C18.3333 14.5398 17.9602 14.1667 17.5 14.1667H2.49999Z" fill="#2D3648"/>
</svg>
