<svg width="14" height="14" viewBox="0 0 14 14" fill="none" xmlns="http://www.w3.org/2000/svg">
<g clip-path="url(#clip0_72_131)">
<path d="M2.33301 0.333374C1.80257 0.333374 1.29387 0.544088 0.918794 0.919161C0.543721 1.29423 0.333008 1.80294 0.333008 2.33337V4.33337C0.333008 4.70156 0.631485 5.00004 0.999674 5.00004C1.36786 5.00004 1.66634 4.70156 1.66634 4.33337V2.33337C1.66634 2.15656 1.73658 1.98699 1.8616 1.86197C1.98663 1.73694 2.1562 1.66671 2.33301 1.66671H4.33301C4.7012 1.66671 4.99967 1.36823 4.99967 1.00004C4.99967 0.631851 4.7012 0.333374 4.33301 0.333374H2.33301Z" fill="white"/>
<path d="M9.66618 0.333374C9.29799 0.333374 8.99951 0.631851 8.99951 1.00004C8.99951 1.36823 9.29799 1.66671 9.66618 1.66671H11.6661C11.843 1.66671 12.0125 1.73694 12.1375 1.86197C12.2626 1.98699 12.3328 2.15656 12.3328 2.33337V4.33337C12.3328 4.70156 12.6313 5.00004 12.9995 5.00004C13.3677 5.00004 13.6661 4.70156 13.6661 4.33337V2.33337C13.6661 1.80294 13.4554 1.29423 13.0804 0.919161C12.7053 0.544088 12.1966 0.333374 11.6661 0.333374H9.66618Z" fill="white"/>
<path d="M1.66634 9.66667C1.66634 9.29848 1.36786 9 0.999674 9C0.631485 9 0.333008 9.29848 0.333008 9.66667V11.6667C0.333008 12.1971 0.543722 12.7058 0.918794 13.0809C1.29387 13.456 1.80257 13.6667 2.33301 13.6667H4.33301C4.7012 13.6667 4.99967 13.3682 4.99967 13C4.99967 12.6318 4.7012 12.3333 4.33301 12.3333H2.33301C2.1562 12.3333 1.98663 12.2631 1.8616 12.1381C1.73658 12.013 1.66634 11.8435 1.66634 11.6667V9.66667Z" fill="white"/>
<path d="M13.6661 9.66667C13.6661 9.29848 13.3677 9 12.9995 9C12.6313 9 12.3328 9.29848 12.3328 9.66667V11.6667C12.3328 11.8435 12.2626 12.013 12.1375 12.1381C12.0125 12.2631 11.843 12.3333 11.6661 12.3333H9.66618C9.29799 12.3333 8.99951 12.6318 8.99951 13C8.99951 13.3682 9.29799 13.6667 9.66618 13.6667H11.6661C12.1966 13.6667 12.7053 13.456 13.0804 13.0809C13.4554 12.7058 13.6661 12.1971 13.6661 11.6667V9.66667Z" fill="white"/>
</g>
<defs>
<clipPath id="clip0_72_131">
<rect width="14" height="14" fill="white"/>
</clipPath>
</defs>
</svg>
