<svg width="14" height="14" viewBox="0 0 14 14" fill="none" xmlns="http://www.w3.org/2000/svg">
<path d="M2.33301 0.333333C1.80257 0.333333 1.29387 0.544047 0.918794 0.91912C0.543721 1.29419 0.333008 1.8029 0.333008 2.33333V4.33333C0.333008 4.70152 0.631485 5 0.999674 5C1.36786 5 1.66634 4.70152 1.66634 4.33333V2.33333C1.66634 2.15652 1.73658 1.98695 1.8616 1.86193C1.98663 1.7369 2.1562 1.66667 2.33301 1.66667H4.33301C4.7012 1.66667 4.99967 1.36819 4.99967 1C4.99967 0.63181 4.7012 0.333333 4.33301 0.333333H2.33301Z" fill="#2D3648"/>
<path d="M9.66634 0.333333C9.29815 0.333333 8.99967 0.63181 8.99967 1C8.99967 1.36819 9.29815 1.66667 9.66634 1.66667H11.6663C11.8432 1.66667 12.0127 1.7369 12.1377 1.86193C12.2628 1.98695 12.333 2.15652 12.333 2.33333V4.33333C12.333 4.70152 12.6315 5 12.9997 5C13.3679 5 13.6663 4.70152 13.6663 4.33333V2.33333C13.6663 1.8029 13.4556 1.29419 13.0806 0.91912C12.7055 0.544047 12.1968 0.333333 11.6663 0.333333H9.66634Z" fill="#2D3648"/>
<path d="M1.66634 9.66667C1.66634 9.29848 1.36786 9 0.999674 9C0.631485 9 0.333008 9.29848 0.333008 9.66667V11.6667C0.333008 12.1971 0.543722 12.7058 0.918794 13.0809C1.29387 13.456 1.80257 13.6667 2.33301 13.6667H4.33301C4.7012 13.6667 4.99967 13.3682 4.99967 13C4.99967 12.6318 4.7012 12.3333 4.33301 12.3333H2.33301C2.1562 12.3333 1.98663 12.2631 1.8616 12.1381C1.73658 12.013 1.66634 11.8435 1.66634 11.6667V9.66667Z" fill="#2D3648"/>
<path d="M13.6663 9.66667C13.6663 9.29848 13.3679 9 12.9997 9C12.6315 9 12.333 9.29848 12.333 9.66667V11.6667C12.333 11.8435 12.2628 12.013 12.1377 12.1381C12.0127 12.2631 11.8432 12.3333 11.6663 12.3333H9.66634C9.29815 12.3333 8.99967 12.6318 8.99967 13C8.99967 13.3682 9.29815 13.6667 9.66634 13.6667H11.6663C12.1968 13.6667 12.7055 13.456 13.0806 13.0809C13.4556 12.7058 13.6663 12.1971 13.6663 11.6667V9.66667Z" fill="#2D3648"/>
</svg>
